<svg id="Layer_1" data-name="Layer 1" xmlns="http://www.w3.org/2000/svg" viewBox="0 0 512 512"><defs><style>.cls-1{fill:#374957;}</style></defs><path class="cls-1" d="M405.33,85.33H320V64a64,64,0,0,0-128,0V85.33H106.67A106.79,106.79,0,0,0,0,192V405.33A106.79,106.79,0,0,0,106.67,512H405.33A106.79,106.79,0,0,0,512,405.33V192A106.79,106.79,0,0,0,405.33,85.33ZM234.67,64a21.33,21.33,0,1,1,42.66,0v64H234.65V64ZM469.33,405.33a64.07,64.07,0,0,1-64,64H106.67a64.07,64.07,0,0,1-64-64V192a64.07,64.07,0,0,1,64-64H192a42.72,42.72,0,0,0,42.67,42.67h42.66A42.72,42.72,0,0,0,320,128h85.33a64.07,64.07,0,0,1,64,64ZM202.67,266.67A53.33,53.33,0,1,1,256,320,53.33,53.33,0,0,1,202.67,266.67ZM362,421.35A21.33,21.33,0,1,1,320.66,432c-7.06-27.35-34.86-48-64.68-48s-57.64,20.63-64.68,48a21.35,21.35,0,0,1-20.65,16,21.93,21.93,0,0,1-5.34-.66,21.34,21.34,0,0,1-15.34-26c11.93-46.37,56.49-80,106-80s94.06,33.65,106,80Z"/></svg>